# xmcd
#
# Track frame offsets:
#	150
#	12469
#	22418
#	35641
#	49199
#	63698
#	77148
#	87877
#	101393
#	114843
#	127449
#	140993
#	153046
#	169150
#	181589
#	196291
#	208444
#	221301
#	232882
#	242680
#
# Disc length: 3390 seconds
#
# Revision: 1
# Processed by: cddbd v1.5.2PL0 Copyright (c) Steve Scherf et al.
# Submitted via: audiograbber 1.80
#
DISCID=1f0d3c14
DTITLE=u.v.a. - Nashville Superstars
DYEAR=1900
DGENRE=
TTITLE0=Johnny Cash - The Lady Came From Baltimore
TTITLE1=Lynn Anderson - What A Man My Man Is
TTITLE2=Kris Kristofferson and Rita Coolidge - Lover Please
TTITLE3=George Jones - These Days (I Barely Get By)
TTITLE4=Michael Murphey - Wildfire
TTITLE5=Tammy Wynette - Woman To Woman
TTITLE6=Roger Miller - I Love A Rodeo
TTITLE7=Charlie Rich - Every Time You Touch Me (I Get High)
TTITLE8=Billy Swan - (You Just) Woman Handled My Mind
TTITLE9=Charlie McCoy - Orange Blossom Special
TTITLE10=Bllly Swan - I Can Help
TTITLE11=Tammy Wynette - Stand By Your Man
TTITLE12=Charlie Rich - My Eluive Dreams
TTITLE13=Michael Murphey - Blue Sky Riding Song
TTITLE14=Lynn Anderson - I Honestly Love You
TTITLE15=George Jones - The Door
TTITLE16=Kris Kristofferson - I May Smoke Too Much
TTITLE17=Charlie McCoy - Me And Bobby McGee
TTITLE18=Larry Gatlin - Delta Dirt
TTITLE19=The Earl Scruggs Revue - Gospel Ship
EXTD=
EXTT0=
EXTT1=
EXTT2=
EXTT3=
EXTT4=
EXTT5=
EXTT6=
EXTT7=
EXTT8=
EXTT9=
EXTT10=
EXTT11=
EXTT12=
EXTT13=
EXTT14=
EXTT15=
EXTT16=
EXTT17=
EXTT18=
EXTT19=
PLAYORDER=
